<svg id="Capa_1" enable-background="new 0 0 511.999 511.999" height="512" viewBox="0 0 511.999 511.999" width="512" xmlns="http://www.w3.org/2000/svg"><g><g><g clip-rule="evenodd" fill-rule="evenodd"><path d="m197.567 7.5c-8.897 86.694-165.265 215.223-154.892 349.612 4.643 60.148 42.909 147.388 155.286 147.388s150.643-87.24 155.286-147.388c3.065-39.718-8.447-78.921-26.398-116.686-44.648-17.32-71.746-62.518-66.35-109.933-30.962-46.232-58.554-88.018-62.144-122.993z" fill="#ff5b5b"/><path d="m259.82 142.499c0 58.342 47.349 105 105 105 57.997 0 105-47.003 105-105s-47.003-105-105-105c-58.115.001-105 47.121-105 105zm82.5 52.5v-30h-30v-45h30v-30h45v30h30v45h-30v30z" fill="#edecf5"/><path d="m312.32 164.999h30v30h45v-30h30v-45h-30v-30h-45v30h-30z" fill="#ff5b5b"/><path d="m197.567 7.5c-8.897 86.694-165.265 215.223-154.892 349.612 7.158 92.74 72.77 152.166 166.536 147.078-103.694-5.627-139.552-88.984-144.036-147.078-8.977-116.298 106.899-228.201 144.03-312.407-5.777-13.101-9.651-25.532-10.849-37.204h-.789zm140.749 259.732c-3.398-9.007-7.255-17.946-11.466-26.806-44.648-17.32-71.746-62.518-66.35-109.933-5.96-8.899-11.793-17.631-17.355-26.184-3.782 12.059-5.823 24.886-5.823 38.191-.001 61.335 43.313 112.532 100.994 124.732z" fill="#af3244"/><path d="m259.82 142.499c0 62.618 54.281 111.003 116.261 104.398-52.439-5.596-93.762-49.896-93.762-104.398 0-54.091 40.951-98.781 93.747-104.399-61.98-6.6-116.246 41.796-116.246 104.399z" fill="#b0c5e0"/></g><g><path d="m235.462 157.498h-15v-15h15zm-15.001-30h-15v-15h15z" fill="#fff"/></g></g><g><path d="m197.962 496.999c-47.989 0-85.759-16.288-112.258-48.411-19.943-24.175-32.901-57.728-35.551-92.054-4.759-61.655 27.269-121.905 59.226-172.711l-12.697-7.986c-33.263 52.881-66.579 115.841-61.483 181.852 2.881 37.333 17.072 73.943 38.935 100.445 13.683 16.586 30.38 29.568 49.628 38.586 21.64 10.139 46.605 15.279 74.201 15.279 43.56 0 79.886-12.593 107.97-37.429l-9.938-11.236c-25.261 22.339-58.243 33.665-98.033 33.665z"/><path d="m364.82 29.999c-51.218 0-94.548 34.407-108.101 81.32-26.633-40.148-51.257-80.35-51.257-111.319h-15c0 34.86-30.692 80.678-63.186 129.187-7.368 10.999-14.987 22.372-22.468 33.924l12.59 8.154c7.418-11.455 15.004-22.779 22.34-33.73 24.72-36.901 47.076-70.277 58.237-100.515 10.917 29.598 32.325 61.852 54.8 95.417-.295 3.316-.455 6.671-.455 10.062 0 46.607 28.49 86.683 68.968 103.734 19.041 40.838 27.055 76.947 24.481 110.302-1.347 17.451-7.91 61.821-39.695 96.836l11.107 10.082c24.574-27.073 40.445-65.622 43.543-105.764 2.51-32.508-4.15-67.112-20.315-105.365 7.863 1.747 16.03 2.675 24.411 2.675 62.032 0 112.5-50.468 112.5-112.5s-50.468-112.5-112.5-112.5zm0 210c-53.762 0-97.5-43.738-97.5-97.5s43.738-97.5 97.5-97.5 97.5 43.738 97.5 97.5-43.738 97.5-97.5 97.5z"/><path d="m394.82 82.499h-60v30h-30v60h30v30h60v-30h30v-60h-30zm15 45v30h-30v30h-30v-30h-30v-30h30v-30h30v30z"/></g></g></svg>